# xmcd
#
# Track frame offsets:
#	150
#	9851
#	26734
#	41902
#	58675
#	77661
#	93615
#	118050
#	143074
#	163060
#	182941
#	208364
#
# Disc length: 2987 seconds
#
# Revision: 1
# Processed by: cddbd v1.5.1PL0 Copyright (c) Steve Scherf et al.
# Submitted via: EasyCDDAExtractor 5.0.6
#
DISCID=aa0ba90c
DTITLE=Fourth Man - Orange Man
DYEAR=2003
DGENRE=Blues
TTITLE0=Intro
TTITLE1=Pictures In Sand
TTITLE2=One
TTITLE3=A Little Love
TTITLE4=If Love Had A Face
TTITLE5=Orange Man
TTITLE6=The Big PI
TTITLE7=4.468
TTITLE8=When It Rains
TTITLE9=Lord I Lift Your Name On High
TTITLE10=Kalimba
TTITLE11=Bonus Track
EXTD=
EXTT0=
EXTT1=
EXTT2=
EXTT3=
EXTT4=
EXTT5=
EXTT6=
EXTT7=
EXTT8=
EXTT9=
EXTT10=
EXTT11=
PLAYORDER=
